<svg width="478" height="524" viewBox="0 0 478 524" fill="none" xmlns="http://www.w3.org/2000/svg">
<path d="M191.136 3.05058C251.358 0.48878 290.636 96.0506 305.636 106.551C320.636 117.051 429.262 45.4533 467.136 96.0506C505.64 147.488 414.134 185.238 406.636 249.051C399.845 306.853 441.154 341.394 424.136 397.051C394.895 492.686 300.511 527.165 200.636 522.051C113.381 517.582 28.8538 492.928 8.13648 408.051C-11.4892 327.645 110.552 305.316 110.636 222.551C110.678 181.964 53.8032 161.551 86.1365 121.551C118.47 81.5506 129.362 5.67845 191.136 3.05058Z" stroke="white" stroke-opacity="0.2"/>
<path d="M186.136 1.05058C246.358 -1.51122 285.636 94.0506 300.636 104.551C315.636 115.051 424.262 43.4533 462.136 94.0506C500.64 145.488 409.134 183.238 401.636 247.051C394.845 304.853 436.154 339.394 419.136 395.051C389.895 490.686 295.511 525.165 195.636 520.051C108.381 515.582 23.8538 490.928 3.13648 406.051C-16.4892 325.645 105.552 303.316 105.636 220.551C105.678 179.964 48.8032 159.551 81.1365 119.551C113.47 79.5506 124.362 3.67845 186.136 1.05058Z" stroke="white" stroke-opacity="0.2"/>
</svg>
