<svg width="15" height="22" viewBox="0 0 15 22" fill="none" xmlns="http://www.w3.org/2000/svg">
<g id="icon">
<g id="Group">
<path id="Vector" d="M3.94135 7.01227C4.98666 7.01227 5.98916 6.64287 6.7283 5.98534C7.46745 5.32782 7.8827 4.43602 7.8827 3.50613C7.8827 2.57625 7.46745 1.68445 6.7283 1.02692C5.98916 0.369395 4.98666 0 3.94135 0C2.89604 0 1.89354 0.369395 1.15439 1.02692C0.415248 1.68445 0 2.57625 0 3.50613C0 4.43602 0.415248 5.32782 1.15439 5.98534C1.89354 6.64287 2.89604 7.01227 3.94135 7.01227Z" fill="#00D26A"/>
<path id="Vector_2" d="M3.94133 6.1043C4.71598 6.1043 5.4589 5.83056 6.00666 5.34328C6.55442 4.85601 6.86215 4.19512 6.86215 3.50601C6.86215 2.8169 6.55442 2.15601 6.00666 1.66874C5.4589 1.18146 4.71598 0.907715 3.94133 0.907715C3.16668 0.907715 2.42376 1.18146 1.876 1.66874C1.32824 2.15601 1.02051 2.8169 1.02051 3.50601C1.02051 4.19512 1.32824 4.85601 1.876 5.34328C2.42376 5.83056 3.16668 6.1043 3.94133 6.1043Z" fill="#C3EF3C"/>
<path id="Vector_3" d="M12.484 3.67059C12.7391 5.5254 13.3549 7.32543 14.2875 9.01588C14.745 9.84546 15.0001 10.7846 15.0001 11.7785C15.0001 15.0499 12.1937 17.7382 8.60421 18.034V20.8256H11.7714C11.8608 20.821 11.9504 20.8326 12.0347 20.8598C12.1189 20.8869 12.1961 20.9291 12.2614 20.9836C12.3268 21.0381 12.379 21.1039 12.4149 21.1769C12.4508 21.25 12.4697 21.3287 12.4703 21.4084C12.4708 21.4882 12.4532 21.5672 12.4184 21.6406C12.3836 21.7141 12.3324 21.7805 12.2678 21.8358C12.2033 21.891 12.1268 21.9341 12.0429 21.9622C11.9591 21.9904 11.8697 22.0031 11.7802 21.9995H4.11741C3.94241 21.9995 3.77458 21.9377 3.65084 21.8276C3.5271 21.7175 3.45758 21.5682 3.45758 21.4126C3.45758 21.2569 3.5271 21.1076 3.65084 20.9975C3.77458 20.8874 3.94241 20.8256 4.11741 20.8256H7.28456V18.034C7.0307 18.0133 6.77817 17.9812 6.52796 17.9377C3.7567 17.4603 1.53969 15.4725 1.01183 13.0151C0.695117 11.5359 0.967845 10.1272 1.64526 8.93762C2.58661 7.29412 3.16726 5.50975 3.40479 3.67842C3.44878 3.3732 3.72151 3.14624 4.06462 3.14624H11.8242C12.1673 3.14624 12.44 3.3732 12.484 3.67059Z" fill="#AEDDFF"/>
<path id="Vector_4" d="M10.997 2.27033e-08C10.8123 -3.95462e-05 10.6322 0.0516444 10.4824 0.147725C10.3325 0.243806 10.2205 0.379409 10.1621 0.535311L8.0146 6.26878L7.96973 6.41278H9.8014L9.86914 6.26878L11.6313 1.56524H14.1861V2.27033e-08H10.997Z" fill="#F8312F"/>
<path id="Vector_5" d="M14.7359 0.782619C14.7359 1.21462 14.4896 1.56524 14.1861 1.56524C13.8826 1.56524 13.6362 1.21462 13.6362 0.782619C13.6362 0.350613 13.8826 0 14.1861 0C14.4896 0 14.7359 0.350613 14.7359 0.782619Z" fill="#990838"/>
<path id="Vector_6" d="M11.3754 6.2688H4.53084C4.19653 6.2688 3.90621 6.46445 3.80943 6.75402C3.50152 7.66186 3.10562 8.54622 2.63055 9.38362C2.26984 10.0097 2.0587 10.6828 2.00592 11.3793C1.88275 12.8585 2.4458 14.275 3.58949 15.3785C4.14592 15.9144 4.82061 16.3426 5.57141 16.6361C6.32222 16.9297 7.13301 17.0823 7.95313 17.0846C8.0675 17.0846 8.18187 17.0846 8.29624 17.0768C9.27558 17.0239 10.2251 16.7569 11.0607 16.2994C11.8962 15.8419 12.592 15.2081 13.0863 14.4542C13.5805 13.7002 13.858 12.8494 13.8941 11.9772C13.9302 11.105 13.7239 10.2383 13.2933 9.45406C12.8138 8.58402 12.4137 7.6811 12.0968 6.75402C12.052 6.61449 11.9574 6.49171 11.8273 6.40419C11.6971 6.31667 11.5385 6.26915 11.3754 6.2688Z" fill="#FF6723"/>
<path id="Vector_7" d="M7.05585 8.76532C7.14596 8.76532 7.23519 8.74953 7.31845 8.71885C7.40171 8.68817 7.47735 8.64321 7.54108 8.58652C7.6048 8.52984 7.65534 8.46254 7.68983 8.38848C7.72431 8.31442 7.74206 8.23504 7.74206 8.15488C7.74206 8.07471 7.72431 7.99533 7.68983 7.92127C7.65534 7.84721 7.6048 7.77991 7.54108 7.72323C7.47735 7.66654 7.40171 7.62158 7.31845 7.5909C7.23519 7.56022 7.14596 7.54443 7.05585 7.54443C6.87385 7.54443 6.69931 7.60875 6.57062 7.72323C6.44193 7.83771 6.36963 7.99298 6.36963 8.15488C6.36963 8.31678 6.44193 8.47204 6.57062 8.58652C6.69931 8.701 6.87385 8.76532 7.05585 8.76532ZM9.92388 10.894C10.1059 10.894 10.2804 10.8297 10.4091 10.7152C10.5378 10.6008 10.6101 10.4455 10.6101 10.2836C10.6101 10.1217 10.5378 9.96643 10.4091 9.85195C10.2804 9.73747 10.1059 9.67316 9.92388 9.67316C9.74189 9.67316 9.56734 9.73747 9.43865 9.85195C9.30996 9.96643 9.23766 10.1217 9.23766 10.2836C9.23766 10.4455 9.30996 10.6008 9.43865 10.7152C9.56734 10.8297 9.74189 10.894 9.92388 10.894ZM7.74206 12.6471C7.74206 12.809 7.66977 12.9643 7.54108 13.0788C7.41238 13.1932 7.23784 13.2576 7.05585 13.2576C6.87385 13.2576 6.69931 13.1932 6.57062 13.0788C6.44193 12.9643 6.36963 12.809 6.36963 12.6471C6.36963 12.4852 6.44193 12.3299 6.57062 12.2155C6.69931 12.101 6.87385 12.0367 7.05585 12.0367C7.23784 12.0367 7.41238 12.101 7.54108 12.2155C7.66977 12.3299 7.74206 12.4852 7.74206 12.6471Z" fill="#FFB02E"/>
<path id="Vector_8" d="M11.437 5.08691C11.5536 5.08691 11.6655 5.12814 11.748 5.20153C11.8305 5.27491 11.8768 5.37444 11.8768 5.47822C11.8768 6.05736 12.0141 6.49406 12.066 6.60989L12.0721 6.62476L12.0774 6.64041C12.3879 7.54687 12.7792 8.42985 13.2475 9.28097C13.683 10.0636 13.9003 10.9057 13.9003 11.7861C13.9003 11.8899 13.854 11.9894 13.7715 12.0628C13.689 12.1362 13.5771 12.1774 13.4604 12.1774C13.3437 12.1774 13.2319 12.1362 13.1494 12.0628C13.0669 11.9894 13.0205 11.8899 13.0205 11.7861C13.0247 11.0376 12.8325 10.2985 12.4592 9.62767V9.6261C11.9715 8.74185 11.564 7.8243 11.2408 6.88224C11.1466 6.65841 10.9971 6.13406 10.9971 5.47822C10.9971 5.37444 11.0434 5.27491 11.1259 5.20153C11.2084 5.12814 11.3203 5.08691 11.437 5.08691Z" fill="white"/>
</g>
</g>
</svg>
