<svg width="128" height="128" viewBox="0 0 128 128" fill="none" xmlns="http://www.w3.org/2000/svg">
<path d="M29.4598 59.86L26.8398 54.17L20.4298 29.25L18.7998 25.37L21.1498 19.59C21.1498 19.59 24.4798 20.06 27.0198 22.93C30.1098 26.43 35.1498 36.9 35.1498 36.9L34.0898 28.64L39.8398 13.73C39.8398 13.73 42.3598 13.46 43.0298 14.15C44.2198 15.37 46.2498 23.93 46.9698 26.64C47.6898 29.35 48.6898 33.05 49.9498 34.67C51.2098 36.29 52.7498 36.66 52.7498 36.66L57.2598 19.24L58.3398 3.44002C58.3398 3.44002 59.9198 3.43002 62.1298 3.89002C63.7998 4.24002 64.9198 4.81002 65.4598 5.48002C65.9998 6.15002 66.0198 16.8 66.0198 16.8C66.0198 16.8 75.5498 8.68002 75.8598 8.77002C76.5198 8.95002 78.5698 9.40002 79.6498 10.58C80.7298 11.75 79.8298 16.09 79.0198 18.98C78.2098 21.87 75.4098 31.26 75.4098 31.26L77.9398 30.3L78.4998 30.84L83.2098 23.61C83.2098 23.61 84.9098 23.6 86.2898 24.28C87.7898 25.02 88.6898 26.84 88.6898 26.84L100.79 9.33002C100.79 9.33002 101.71 10.15 102.52 10.96C103.33 11.77 103.9 12.34 103.94 13.16C103.98 13.97 101.06 19.36 99.7098 22.07C98.3598 24.78 96.0998 30.2 96.0998 30.2L105.94 22.69C105.94 22.69 109.2 23.15 109.3 24.23C109.39 25.31 107.66 27.31 105.94 30.29C104.22 33.27 101.34 39.05 100.34 41.03C99.3398 43.01 100.7 43.11 100.7 43.11L112.49 35.66C112.49 35.66 115.03 36.18 115.27 37.36C115.54 38.71 112.62 41.4 110.72 43.56C108.82 45.73 104.76 50.96 102.69 55.03C100.62 59.1 99.2298 61.64 99.2298 61.64L81.2798 79.45L33.5198 76.56L29.4598 59.86Z" fill="url(#paint0_radial_138_534)"/>
<path d="M89.1698 40.2C87.9698 40.48 84.1798 47.04 80.6398 57.02C78.5098 63.02 77.0998 69.58 77.1798 72.72C77.2598 75.86 81.9998 74.9 81.9998 74.9L84.0098 68.38C84.0098 68.38 86.2598 60.73 88.9198 55.02C92.0298 48.32 96.0598 44.06 95.7598 43.03C95.3598 41.65 90.8598 39.8 89.1698 40.2ZM101.08 23.14C99.3998 24.12 95.6098 30.46 94.4798 32.88C93.3498 35.3 93.3098 39.85 94.5498 40.44C96.0798 41.16 97.7798 36.02 100.36 31.75C102.94 27.48 105.99 22.65 105.99 22.65C105.99 22.65 103.01 22.01 101.08 23.14ZM107.44 35.7C104.87 36.79 100.08 41.9 98.4198 44.47C95.3598 49.22 93.1098 54.53 92.2998 56.7C91.4998 58.87 90.8498 61.85 93.3498 60.48C95.8498 59.11 99.0598 52.67 103.17 46.88C107.93 40.16 112.51 35.61 112.51 35.61C112.51 35.61 109.53 34.81 107.44 35.7ZM96.6498 7.03998C95.6598 6.91998 92.9498 14.12 91.4198 17.58C89.8898 21.04 87.8498 25.62 87.8498 25.62C87.8498 25.62 86.6698 34.73 88.3598 34.89C90.0498 35.05 93.3598 23.94 95.8298 18.85C98.2398 13.89 100.78 9.29998 100.78 9.29998C100.78 9.29998 98.5798 7.27998 96.6498 7.03998ZM78.8498 25.08C77.9598 26.02 78.4598 30.86 78.4598 30.86C78.4598 30.86 81.9198 33.44 82.5698 32.87C83.2198 32.3 83.2498 23.56 83.2498 23.56C83.2498 23.56 80.2998 23.55 78.8498 25.08ZM71.6998 31.67C70.4498 32.72 71.2998 37.64 70.9798 42.05C70.4998 48.65 68.5698 62.17 67.9998 66.12C67.4298 70.07 66.8698 74.41 66.8698 74.41L73.0698 73.44C73.0698 73.44 75.4798 55.01 76.4498 47.92C77.4198 40.83 78.8598 30.78 77.8998 30.21C76.9298 29.66 73.2298 30.38 71.6998 31.67ZM70.9498 8.15998C69.3698 8.45998 66.0298 16.8 66.0298 16.8C66.0298 16.8 65.8298 22.82 65.8298 25.72C65.8298 28.62 65.2698 32.08 66.2298 32.08C67.1898 32.08 69.0498 26.53 70.9798 21.7C72.9098 16.87 75.8698 8.76998 75.8698 8.76998C75.8698 8.76998 73.1898 7.73998 70.9498 8.15998ZM52.7798 5.10998C51.6898 6.25998 53.4198 9.21998 53.5798 17.34C53.7398 25.47 52.7398 36.65 52.7398 36.65C52.7398 36.65 53.5998 36.59 54.1398 38.26C54.5998 39.67 55.3498 48.24 56.3098 47.92C57.2798 47.6 58.4798 41.88 59.4498 32.22C60.4198 22.56 60.0098 15.08 59.6898 12.02C59.3698 8.95998 58.3298 3.41998 58.3298 3.41998C58.3298 3.41998 54.3898 3.41998 52.7798 5.10998ZM39.8398 13.73C39.8398 13.73 35.1898 14.06 33.9098 16.56C32.6198 19.06 33.0298 20.27 33.2698 22.68C33.5098 25.09 34.2698 29.9 34.2698 29.9C34.2698 29.9 38.5398 35.21 40.8698 33.92C43.1998 32.64 39.8398 13.73 39.8398 13.73ZM21.1498 19.59C21.1498 19.59 18.5698 19.11 17.0398 19.43C15.5098 19.75 15.5898 21.2 16.3198 22.17C17.0398 23.14 20.3698 29.16 20.3698 29.16C20.3698 29.16 21.3598 29.18 22.6498 29.66C23.9398 30.14 26.1498 31.34 26.0598 29.41C25.8998 26.04 21.1498 19.59 21.1498 19.59ZM28.4198 57.6C28.4198 57.6 23.5598 47.77 19.9398 42.37C16.3198 36.97 12.5298 32.79 12.5298 31.91C12.5298 31.02 15.0298 30.14 16.4698 29.74C17.9098 29.34 20.4198 29.25 20.4198 29.25C20.4198 29.25 26.3698 39.31 28.7898 44.79C31.2098 50.27 33.4598 56.65 32.8998 57.43C32.3898 58.13 28.7798 57.66 28.4198 57.6ZM31.6898 40.04C31.3098 41.45 33.1398 47.85 34.2698 52.44C35.3998 57.03 36.7698 61.86 36.7698 61.86L40.6298 69.75L44.8998 68.22C44.8998 68.22 42.6498 63.87 41.3598 59.37C40.0698 54.85 38.3998 40.83 36.6798 39C35.4798 37.71 31.9398 39.16 31.6898 40.04ZM45.0598 38.43C44.0498 39.09 45.6198 49.78 46.4298 54.21C47.2398 58.64 48.9298 63.31 49.8098 65.48C50.6998 67.65 53.2698 73.13 53.2698 73.13C53.2698 73.13 55.9298 76.27 56.0098 75.95C56.0898 75.63 57.2198 71.68 57.2198 71.68C57.2198 71.68 53.6698 61.21 53.0998 56.7C52.5398 52.19 51.6498 38.51 50.7698 38.03C49.8898 37.55 46.6698 37.39 45.0598 38.43ZM63.0098 38.67C61.7998 39.79 60.5998 54.61 60.1098 60.08C59.6198 65.55 59.2198 73.6 59.2198 73.6L64.6098 73.2C64.6098 73.2 66.6198 53.32 66.9398 50.74C67.2598 48.16 68.7098 42.29 67.9898 39.95C67.2698 37.63 64.0498 37.71 63.0098 38.67Z" fill="#FBDE93"/>
<path d="M26.8201 59.43C26.4801 60.2 36.9901 117.71 37.1601 118.57C37.3301 119.43 36.9901 120.21 38.6201 120.98C40.2601 121.75 42.8201 122.16 44.4601 122.34C46.1001 122.51 57.3901 122.53 57.4801 121.16C57.5701 119.78 91.3201 70.62 91.3201 70.62C91.3201 70.62 97.5401 60.19 97.1101 59.33C96.6801 58.47 95.0001 58.87 93.1701 60.12C91.3401 61.38 89.6501 64.49 84.5101 67.94C78.9401 71.68 71.5601 72.47 64.1401 72.38C57.3001 72.29 49.1701 71.05 43.3501 66.74C38.2301 62.94 36.7201 60.2 32.1601 58.99C28.1401 57.92 26.8201 59.43 26.8201 59.43Z" fill="#FD703F"/>
<path d="M34.77 63.19L44.31 122.36C44.31 122.36 55.68 124 64.54 124.17C73.41 124.34 83.98 122.49 83.98 122.49L91.66 96.53L98.18 62.28C98.18 62.28 96.57 60.67 94.76 62C93.37 63.02 89.08 69.66 81.5 72.59C72.95 75.89 57.54 76.13 47.92 72.07C39.1 68.36 36.41 63.53 34.77 63.19Z" fill="#FF2A23"/>
<path d="M89.5098 120.67C87.5698 121.83 83.0498 122.61 83.0498 122.61C83.0498 122.61 87.5298 100.83 90.0198 89.46C92.5098 78.09 96.0998 58.86 96.0998 58.86C96.0998 58.86 97.5398 58.63 99.0198 58.81C100.7 59.02 101.7 59.51 102.04 60.04C102.59 60.9 99.2798 76.96 96.0398 92.64C93.0798 107.04 90.5398 120.06 89.5098 120.67Z" fill="#DC0D25"/>
<defs>
<radialGradient id="paint0_radial_138_534" cx="0" cy="0" r="1" gradientUnits="userSpaceOnUse" gradientTransform="translate(64.5868 -7.87198) scale(83.128 83.128)">
<stop offset="0.447" stop-color="#FCC216"/>
<stop offset="0.59" stop-color="#FABB16"/>
<stop offset="0.794" stop-color="#F3A814"/>
<stop offset="0.921" stop-color="#ED9913"/>
</radialGradient>
</defs>
</svg>
