<svg width="680" height="663" viewBox="0 0 680 663" fill="none" xmlns="http://www.w3.org/2000/svg">
<path d="M40.7346 431.867C39.9015 524.005 133.742 559.05 223.084 581.6C274.39 594.55 350.562 633.903 358.582 581.6C369.146 512.704 512.725 532.563 565.275 453.454C619.327 372.082 646.366 292.456 601.101 205.888C572.578 151.337 556.896 144.027 506.941 108.055C419.383 45.0063 413.157 32.5085 305.301 35.4851C218.86 37.8707 137.305 -55.1342 33.3858 54.7759C-40.1053 132.504 17.7687 237.58 143.622 268.813C215.048 286.538 41.4 358.279 40.7346 431.867Z" stroke="white" stroke-opacity="0.28"/>
<path d="M40.7346 449.867C39.9015 542.005 133.742 577.05 223.084 599.6C274.39 612.55 350.562 651.903 358.582 599.6C369.146 530.704 512.725 550.563 565.275 471.454C619.327 390.082 646.366 310.456 601.101 223.888C572.578 169.337 556.896 162.027 506.941 126.055C419.383 63.0063 413.157 50.5085 305.301 53.4851C218.86 55.8707 137.305 -37.1342 33.3858 72.7759C-40.1053 150.504 17.7687 255.58 143.622 286.813C215.048 304.538 41.4 376.279 40.7346 449.867Z" stroke="white" stroke-opacity="0.28"/>
<path d="M44.5001 470.5C43.5932 570.802 145.745 608.952 243 633.5C298.851 647.598 381.77 690.437 390.5 633.5C402 558.5 558.296 580.119 615.5 494C674.34 405.419 703.774 318.738 654.5 224.5C623.451 165.116 606.379 157.158 552 118C456.687 49.3648 449.909 35.7596 332.5 39C238.402 41.597 149.623 -59.648 36.5003 60C-43.5 144.615 19.5001 259 156.5 293C234.252 312.296 45.2244 390.393 44.5001 470.5Z" stroke="white" stroke-opacity="0.28"/>
</svg>
