<svg width="29" height="23" viewBox="0 0 29 23" fill="none" xmlns="http://www.w3.org/2000/svg">
<g id="Group">
<path id="Vector" d="M22.9574 22.849H5.25837C4.92005 22.8492 4.58502 22.7826 4.27243 22.6532C3.95983 22.5238 3.6758 22.3341 3.43657 22.0948C3.19734 21.8556 3.0076 21.5716 2.87819 21.259C2.74878 20.9464 2.68224 20.6113 2.68237 20.273V18.29L14.1084 17.15L25.5524 18.289V20.263C25.5489 20.9493 25.2743 21.6064 24.7884 22.091C24.3025 22.5756 23.6447 22.8485 22.9584 22.85L22.9574 22.849Z" fill="#E19747"/>
<path id="Vector_2" d="M17.3754 0.150024H10.8514C9.75907 0.149893 8.67738 0.364955 7.66813 0.782927C6.65889 1.2009 5.74186 1.81359 4.96944 2.58602C4.19702 3.35844 3.58432 4.27546 3.16635 5.28471C2.74838 6.29395 2.53332 7.37565 2.53345 8.46802V9.79103H25.7034V8.46802C25.6934 3.87802 21.9654 0.150024 17.3754 0.150024Z" fill="#F3AD61"/>
<path id="Vector_3" d="M17.3153 2.59499C17.3191 2.69864 17.3019 2.80198 17.2648 2.89884C17.2277 2.9957 17.1715 3.08409 17.0995 3.15874C17.0274 3.23339 16.9411 3.29276 16.8457 3.33332C16.7502 3.37387 16.6475 3.39477 16.5438 3.39477C16.4401 3.39477 16.3375 3.37387 16.242 3.33332C16.1465 3.29276 16.0602 3.23339 15.9882 3.15874C15.9162 3.08409 15.86 2.9957 15.8229 2.89884C15.7858 2.80198 15.7686 2.69864 15.7723 2.59499C15.7795 2.39518 15.864 2.20596 16.0079 2.06715C16.1518 1.92834 16.3439 1.85077 16.5438 1.85077C16.7438 1.85077 16.9359 1.92834 17.0798 2.06715C17.2237 2.20596 17.3081 2.39518 17.3153 2.59499ZM11.6733 3.36699C11.777 3.37072 11.8803 3.35353 11.9772 3.31644C12.074 3.27935 12.1624 3.22312 12.2371 3.15111C12.3117 3.0791 12.3711 2.99279 12.4117 2.89732C12.4522 2.80186 12.4731 2.69921 12.4731 2.59549C12.4731 2.49177 12.4522 2.38911 12.4117 2.29365C12.3711 2.19819 12.3117 2.11187 12.2371 2.03986C12.1624 1.96786 12.074 1.91163 11.9772 1.87454C11.8803 1.83745 11.777 1.82025 11.6733 1.82399C11.4735 1.83118 11.2843 1.91561 11.1455 2.05951C11.0067 2.20341 10.9291 2.39555 10.9291 2.59549C10.9291 2.79542 11.0067 2.98756 11.1455 3.13146C11.2843 3.27536 11.4735 3.35979 11.6733 3.36699ZM20.0013 4.75999C20.0013 4.96473 19.92 5.1611 19.7752 5.30587C19.6304 5.45065 19.4341 5.53199 19.2293 5.53199C19.0246 5.53199 18.8282 5.45065 18.6834 5.30587C18.5387 5.1611 18.4573 4.96473 18.4573 4.75999C18.4573 4.55524 18.5387 4.35888 18.6834 4.2141C18.8282 4.06932 19.0246 3.98799 19.2293 3.98799C19.4341 3.98799 19.6304 4.06932 19.7752 4.2141C19.92 4.35888 20.0013 4.55524 20.0013 4.75999ZM8.98833 5.53199C9.19308 5.53185 9.38939 5.45039 9.53407 5.30552C9.67876 5.16065 9.75996 4.96423 9.75983 4.75949C9.7597 4.55474 9.67824 4.35843 9.53336 4.21375C9.38849 4.06906 9.19208 3.98785 8.98733 3.98799C8.78258 3.98799 8.58622 4.06932 8.44145 4.2141C8.29667 4.35888 8.21533 4.55524 8.21533 4.75999C8.21533 4.96473 8.29667 5.1611 8.44145 5.30587C8.58622 5.45065 8.78258 5.53199 8.98733 5.53199H8.98833ZM14.1083 6.41299C14.212 6.41672 14.3153 6.39953 14.4122 6.36244C14.509 6.32535 14.5974 6.26912 14.6721 6.19711C14.7467 6.1251 14.8061 6.03879 14.8467 5.94332C14.8872 5.84786 14.9081 5.74521 14.9081 5.64149C14.9081 5.53777 14.8872 5.43511 14.8467 5.33965C14.8061 5.24419 14.7467 5.15787 14.6721 5.08587C14.5974 5.01386 14.509 4.95763 14.4122 4.92054C14.3153 4.88345 14.212 4.86625 14.1083 4.86999C13.9085 4.87718 13.7193 4.96161 13.5805 5.10551C13.4417 5.24941 13.3641 5.44155 13.3641 5.64149C13.3641 5.84142 13.4417 6.03356 13.5805 6.17746C13.7193 6.32136 13.9085 6.40579 14.1083 6.41299Z" fill="#FFF3D7"/>
<path id="Vector_4" d="M25.5423 9.56006H2.67334V12.7671L14.0893 14.7081L25.5423 12.7671V9.56006Z" fill="#F8312F"/>
<path id="Vector_5" d="M3.94733 8.32506C4.81933 7.86006 5.85433 7.31506 7.77433 7.31506C9.69533 7.31506 10.7283 7.86106 11.5993 8.32506L11.6173 8.33506C12.3223 8.71206 12.8773 9.00806 14.1173 9.00806C15.3593 9.00806 15.9133 8.71206 16.6183 8.33606L16.6373 8.32606C17.5073 7.86106 18.5413 7.31506 20.4623 7.31506C22.3823 7.31506 23.4163 7.86106 24.2863 8.32606L24.3063 8.33606C25.0093 8.71306 25.5613 9.00806 26.7963 9.00806C27.166 9.00806 27.5206 9.15493 27.782 9.41636C28.0435 9.67778 28.1903 10.0324 28.1903 10.4021C28.1903 10.7718 28.0435 11.1263 27.782 11.3878C27.5206 11.6492 27.166 11.7961 26.7963 11.7961C24.8743 11.7961 23.8413 11.2491 22.9713 10.7841L22.9513 10.7741C22.2473 10.3971 21.6963 10.1021 20.4613 10.1021C19.2283 10.1021 18.6763 10.3971 17.9713 10.7731L17.9503 10.7851C17.0783 11.2501 16.0433 11.7951 14.1183 11.7951C12.1933 11.7951 11.1583 11.2501 10.2863 10.7851L10.2653 10.7731C9.56033 10.3971 9.00833 10.1031 7.77533 10.1031C6.53933 10.1031 5.98533 10.3981 5.27733 10.7751L5.25833 10.7851C4.38633 11.2501 3.35133 11.7951 1.43133 11.7951C1.24519 11.8001 1.05994 11.7677 0.886517 11.6999C0.713089 11.6321 0.555 11.5303 0.421582 11.4004C0.288164 11.2705 0.182121 11.1152 0.109713 10.9436C0.0373051 10.7721 0 10.5878 0 10.4016C0 10.2154 0.0373051 10.031 0.109713 9.85949C0.182121 9.68794 0.288164 9.53264 0.421582 9.40275C0.555 9.27285 0.713089 9.17101 0.886517 9.10322C1.05994 9.03543 1.24519 9.00308 1.43133 9.00806C2.66633 9.00806 3.22133 8.71306 3.92833 8.33506L3.94733 8.32506Z" fill="#44911B"/>
<path id="Vector_6" d="M25.7834 18.289H2.4334C1.81693 18.2885 1.22587 18.0434 0.78996 17.6075C0.354053 17.1716 0.108928 16.5805 0.108398 15.964C0.108928 15.3476 0.354053 14.7565 0.78996 14.3206C1.22587 13.8847 1.81693 13.6396 2.4334 13.639H25.7834C26.3999 13.6396 26.9909 13.8847 27.4268 14.3206C27.8627 14.7565 28.1079 15.3476 28.1084 15.964C28.1079 16.5805 27.8627 17.1716 27.4268 17.6075C26.9909 18.0434 26.3999 18.2885 25.7834 18.289Z" fill="#6D4534"/>
<path id="Vector_7" d="M25.5423 12.767H2.67334V13.639L9.95934 15.272C12.6853 15.884 15.5213 15.884 18.2473 15.272L25.5323 13.639V12.767H25.5423Z" fill="#FCD53F"/>
</g>
</svg>
