<svg width="28" height="29" viewBox="0 0 28 29" fill="none" xmlns="http://www.w3.org/2000/svg">
<path d="M4.42755 10.6881C4.42755 10.6881 3.2288 11.4428 3.09099 12.1953C2.95318 12.95 3.2288 13.8403 3.60505 14.4222C3.9813 15.004 4.42755 15.4853 4.97662 15.6909C5.52568 15.8965 6.00474 15.8615 6.00474 15.8615C6.00474 15.8615 7.27349 17.3009 9.53318 19.2544C11.7929 21.2078 14.6738 23.5375 17.9288 25.3531C21.1838 27.1687 22.3497 27.615 23.2401 27.615C24.1304 27.615 24.0976 26.2784 23.9947 25.8672C23.8919 25.4559 18.1694 19.0837 18.1694 19.0837L4.42755 10.6881Z" fill="#FF8E00"/>
<path d="M6.82724 14.0131L5.96974 13.0878C5.96974 13.0878 5.07943 11.4078 4.25693 11.4078C3.43443 11.4078 3.09099 12.1953 3.09099 12.1953C3.09099 12.1953 2.98818 11.3378 4.0163 9.69499C5.04443 8.05218 6.34599 6.74843 7.51193 5.92593C8.67787 5.10343 10.1151 4.14311 11.0754 3.59624C12.0357 3.04936 14.1247 2.36249 15.3257 1.95124C16.5244 1.53999 19.1297 1.02593 20.3285 1.26655C21.5272 1.50718 22.0413 2.32968 22.0413 3.18499C22.0413 4.0403 21.8357 4.62436 21.6651 4.79499C21.4944 4.96561 20.3635 5.92593 20.3635 5.92593L6.82724 14.0131Z" fill="#F5B03E"/>
<path d="M9.23117 10.4015L7.10711 11.7731L6.2168 13.5209C6.2168 13.5209 6.38742 14.1028 6.66305 14.4112C6.93648 14.7197 9.23117 16.9181 10.874 18.3225C12.1559 19.4184 14.888 21.7437 14.888 21.7437C14.888 21.7437 14.9996 22.9118 15.1287 23.7322C15.2315 24.384 15.238 25.4712 15.9249 25.4406C16.7912 25.4012 16.2924 23.6468 16.9793 23.6643C18.3509 23.6993 16.9902 27.4093 18.4646 27.3897C19.6393 27.3743 18.8934 25.3465 19.4818 25.0009C19.8012 24.8128 20.4355 25.6112 21.4702 26.064C22.7477 26.6218 23.5265 27.044 23.9377 26.8515C24.8062 26.4447 22.9752 16.9575 22.7696 15.3475C22.564 13.7375 21.5402 5.46872 21.4702 5.19528C21.4002 4.92184 19.9959 4.88684 19.9959 4.88684L17.8368 5.64153L14.7524 6.05278L11.1212 8.21184L9.23117 10.4015Z" fill="#FFCC8A"/>
<path d="M8.69525 10.0581C8.0215 10.4387 7.15306 10.6509 6.42025 11.8584C5.80994 12.8646 5.64806 13.895 6.08338 13.9737C6.51869 14.0525 6.849 12.5343 7.42869 11.9568C8.35838 11.0271 9.11088 10.9287 9.64463 10.4343C10.1784 9.93996 10.7624 8.59684 12.9871 7.40902C15.5793 6.02434 17.1281 6.38965 17.734 6.16215C18.5259 5.86465 18.7402 5.37902 19.7312 5.1734C20.779 4.95684 21.5074 5.37465 21.5074 5.37465C21.5074 5.37465 21.7459 4.82121 21.4287 4.56309C21.1115 4.30496 20.5274 4.10371 19.5518 4.30277C18.4843 4.51934 17.6924 5.23246 17.4759 5.25215C17.2593 5.27184 15.0434 5.15371 12.4118 6.65652C9.78025 8.15934 9.28806 9.72121 8.69525 10.0581Z" fill="#CB6C22"/>
<path d="M11.7207 12.4512L8.18129 13.2234C8.18129 13.2234 8.1266 13.895 8.1616 14.094C8.27973 14.7656 9.17004 15.8353 9.70379 16.0125C10.2375 16.1896 11.3247 16.2093 11.6813 16.0518C12.0379 15.8943 13.1054 15.1221 13.2432 14.7065C13.381 14.2909 13.3438 12.5518 13.0682 12.274C12.7925 11.9984 11.7207 12.4512 11.7207 12.4512Z" fill="#DB0D27"/>
<path d="M9.22918 11.3444C8.85074 11.6375 8.1223 12.6306 8.18136 13.3415C8.24043 14.0547 9.46761 15.2994 9.8023 15.4175C10.137 15.5356 11.2264 15.5553 11.5042 15.4765C11.782 15.3978 12.8495 14.6059 13.007 14.3303C13.1645 14.0525 13.3045 12.5103 13.0464 12.2347C12.7882 11.959 12.0182 11.1475 11.4057 10.9681C10.7911 10.7909 9.58574 11.0665 9.22918 11.3444Z" fill="#ED6D30"/>
<path d="M18.2875 14.6671C18.2875 14.6671 15.155 14.4418 15.1156 14.6387C15.0762 14.8355 15.004 15.5968 15.2031 16.2093C15.3431 16.6446 15.6778 17.3971 16.7059 17.8302C17.734 18.2634 18.7228 17.7909 18.9809 17.5918C19.4643 17.2199 19.7728 16.7605 19.8515 16.4849C19.9303 16.2093 18.2875 14.6671 18.2875 14.6671Z" fill="#DB0D27"/>
<path d="M16.765 13.0243C16.2816 13.1993 15.1244 13.9146 15.1025 14.7065C15.0829 15.4984 15.656 16.4675 15.9535 16.684C16.251 16.9006 17.2397 17.4759 17.9704 17.4365C18.7032 17.3972 19.7116 16.8043 19.8494 16.4871C19.9872 16.17 20.0463 15.2403 19.9872 14.7656C19.9282 14.2909 18.9 13.2234 18.386 13.0637C17.8719 12.9062 17.2004 12.8668 16.765 13.0243Z" fill="#ED6D30"/>
<path d="M16.6469 20.4225C16.6469 20.4225 13.7791 19.6306 13.7398 19.6897C13.7004 19.7487 13.3044 20.2431 13.4029 20.4815C13.5013 20.72 14.5098 21.5294 14.9254 21.8859C15.341 22.2425 16.5966 22.9797 16.7454 22.9534C17.1019 22.8944 17.3776 22.3212 17.3776 22.3212L16.6469 20.4225Z" fill="#DB0D27"/>
<path d="M16.9027 19.215C16.2027 18.7009 15.1811 18.7403 14.6277 18.9984C14.0743 19.2565 13.7374 19.5912 13.6783 19.8493C13.6193 20.1075 14.0764 20.604 14.2558 20.7418C14.433 20.8796 14.9711 21.2865 14.9711 21.2865C14.9711 21.2865 15.7696 21.9121 16.0649 22.1396C16.4761 22.4568 16.9924 22.6362 17.1302 22.6559C17.268 22.6756 17.9111 21.8443 17.793 20.7353C17.7318 20.1687 17.4911 19.6481 16.9027 19.215Z" fill="#ED6D30"/>
<path d="M21.8882 17.6334L20.8207 17.594C20.8207 17.594 20.3854 18.4056 20.6829 19.3156C20.9257 20.0593 21.4354 20.5034 22.2841 20.7396C23.135 20.9781 23.6097 20.8927 23.6097 20.8927L23.6229 20.2956L21.8882 17.6334Z" fill="#DB0D27"/>
<path d="M22.9163 16.2685C22.9163 16.2685 21.5995 16.1131 20.9192 17.336C20.3985 18.2744 20.7617 19.0575 21.1773 19.5125C21.5929 19.9675 22.2251 20.265 22.6998 20.3044C23.1745 20.3438 23.6338 20.3066 23.6338 20.3066C23.6338 20.3066 23.4501 19.0925 23.2707 18.0775C23.1613 17.4694 22.9163 16.2685 22.9163 16.2685Z" fill="#ED6D30"/>
<path d="M19.0795 7.70435C19.0795 7.70435 16.5289 7.7831 16.3692 8.04122C16.2095 8.29935 16.2117 9.4456 16.2904 9.9006C16.3692 10.3556 17.0626 11.4625 18.4473 11.4822C19.832 11.5018 20.3198 11.1562 20.8579 10.1106C21.3961 9.06497 20.8361 7.89466 20.8361 7.89466L19.0795 7.70435Z" fill="#DB0D27"/>
<path d="M19.099 6.53624C18.5455 6.42905 17.7734 6.65437 17.3971 6.91249C17.0209 7.17062 16.4084 7.70437 16.369 8.1003C16.3296 8.49624 16.6862 9.64249 16.824 9.86124C16.9618 10.0778 17.5349 10.6662 17.7143 10.7516C18.1299 10.9484 19.2762 10.85 19.613 10.7319C19.9499 10.6137 20.8796 9.86124 20.978 9.4653C21.0765 9.06937 21.1946 8.39781 20.7396 7.58624C20.2846 6.77468 19.613 6.63687 19.099 6.53624Z" fill="#ED6D30"/>
<path d="M22.7019 23.1371L20.4247 23.0387C20.4247 23.0387 20.1184 23.6534 20.2103 24.1915C20.2847 24.6378 20.6544 25.2459 21.3172 25.5018C21.6934 25.6462 22.6778 25.5521 22.9184 25.3881C23.4041 25.0556 23.5594 24.4518 23.5441 24.1412C23.5375 23.9793 22.7019 23.1371 22.7019 23.1371Z" fill="#DB0D27"/>
<path d="M22.2053 22.1703C21.6146 22.0806 20.9343 22.4 20.6412 22.704C20.3481 23.0081 20.289 23.3887 20.4006 23.8481C20.604 24.6881 21.1421 24.9265 21.3915 25.0556C21.7612 25.2459 22.7762 25.2087 23.0956 24.9659C23.4128 24.7253 23.6534 24.314 23.579 23.6818C23.5024 23.0475 23.2224 22.3234 22.2053 22.1703Z" fill="#ED6D30"/>
<path d="M7.87507 7.13775C7.89476 7.61025 8.72164 7.52931 9.04757 7.49649C9.30789 7.47024 9.95976 7.41556 9.95976 6.99118C9.95976 6.56681 9.39101 6.56899 8.96664 6.58431C8.55757 6.59962 7.85757 6.76368 7.87507 7.13775ZM12.3179 4.35524C12.3179 4.66587 12.6591 4.69649 12.8713 4.71399C13.0835 4.72931 13.3591 4.64837 13.3766 4.40556C13.392 4.16056 13.1819 4.01399 12.8713 3.99868C12.5454 3.97899 12.3179 4.09274 12.3179 4.35524ZM14.3523 5.10337C14.6651 5.44243 15.1332 4.98962 15.2973 4.77743C15.4591 4.56524 15.492 4.23931 15.3126 4.07743C15.1332 3.91556 14.792 4.09274 14.5645 4.30493C14.337 4.51712 14.1576 4.89118 14.3523 5.10337ZM17.8851 3.37743C18.2657 3.80837 18.8935 3.08431 19.1538 2.83931C19.4141 2.59431 19.6263 2.25306 19.3813 1.97743C19.1363 1.70181 18.5829 2.09118 18.3729 2.33618C18.1607 2.57899 17.6401 3.10181 17.8851 3.37743ZM5.88882 10.6859C6.25851 10.7734 6.37882 10.3359 6.44226 10.0012C6.50789 9.65993 6.50789 9.33399 6.23007 9.28587C5.91507 9.23118 5.74226 9.54618 5.69195 9.85462C5.65039 10.1324 5.54757 10.6049 5.88882 10.6859Z" fill="#FCC12B"/>
</svg>
