<svg width="18" height="30" viewBox="0 0 18 30" fill="none" xmlns="http://www.w3.org/2000/svg">
<path d="M4.48 9.90458C5.66817 9.90458 6.80768 9.43258 7.64784 8.59242C8.488 7.75226 8.96 6.61275 8.96 5.42458C8.96 4.23641 8.488 3.0969 7.64784 2.25674C6.80768 1.41658 5.66817 0.94458 4.48 0.94458C3.29183 0.94458 2.15232 1.41658 1.31216 2.25674C0.471998 3.0969 0 4.23641 0 5.42458C0 6.61275 0.471998 7.75226 1.31216 8.59242C2.15232 9.43258 3.29183 9.90458 4.48 9.90458Z" fill="#00D26A"/>
<path d="M4.47991 8.74449C5.36043 8.74449 6.20489 8.39471 6.82751 7.77209C7.45013 7.14947 7.79991 6.30501 7.79991 5.42449C7.79991 4.54397 7.45013 3.69952 6.82751 3.0769C6.20489 2.45428 5.36043 2.10449 4.47991 2.10449C3.59939 2.10449 2.75494 2.45428 2.13232 3.0769C1.5097 3.69952 1.15991 4.54397 1.15991 5.42449C1.15991 6.30501 1.5097 7.14947 2.13232 7.77209C2.75494 8.39471 3.59939 8.74449 4.47991 8.74449Z" fill="#C3EF3C"/>
<path d="M14.1899 5.6346C14.4799 8.0046 15.1799 10.3046 16.2399 12.4646C16.7599 13.5246 17.0499 14.7246 17.0499 15.9946C17.0499 20.1746 13.8599 23.6096 9.77992 23.9876V27.5546H13.3799C13.4816 27.5487 13.5834 27.5636 13.6792 27.5983C13.775 27.633 13.8627 27.6868 13.937 27.7565C14.0113 27.8261 14.0706 27.9102 14.1114 28.0035C14.1522 28.0968 14.1736 28.1975 14.1743 28.2993C14.175 28.4012 14.1549 28.5021 14.1154 28.596C14.0758 28.6898 14.0176 28.7747 13.9442 28.8453C13.8709 28.916 13.7839 28.971 13.6886 29.0069C13.5933 29.0429 13.4917 29.0591 13.3899 29.0546H4.67992C4.481 29.0546 4.29024 28.9756 4.14959 28.8349C4.00893 28.6943 3.92992 28.5035 3.92992 28.3046C3.92992 28.1057 4.00893 27.9149 4.14959 27.7743C4.29024 27.6336 4.481 27.5546 4.67992 27.5546H8.27992V23.9876C7.99136 23.9611 7.70432 23.9201 7.41992 23.8646C4.26992 23.2546 1.74992 20.7146 1.14992 17.5746C0.789916 15.6846 1.09992 13.8846 1.86992 12.3646C2.93992 10.2646 3.59992 7.9846 3.86992 5.6446C3.91992 5.2546 4.22992 4.9646 4.61992 4.9646H13.4399C13.8299 4.9646 14.1399 5.2546 14.1899 5.6346Z" fill="#AEDDFF"/>
<path d="M12.5001 0.94458C12.2901 0.94453 12.0855 1.01057 11.9151 1.13334C11.7448 1.25611 11.6174 1.42937 11.5511 1.62858L9.11008 8.95458L9.05908 9.13858H11.1411L11.2181 8.95458L13.2211 2.94458H16.1251V0.94458H12.5001Z" fill="#F8312F"/>
<path d="M16.75 1.94458C16.75 2.49658 16.47 2.94458 16.125 2.94458C15.78 2.94458 15.5 2.49658 15.5 1.94458C15.5 1.39258 15.78 0.94458 16.125 0.94458C16.47 0.94458 16.75 1.39258 16.75 1.94458Z" fill="#990838"/>
<path d="M12.9299 8.95459H5.14992C4.76992 8.95459 4.43992 9.20459 4.32992 9.57459C3.97992 10.7346 3.52992 11.8646 2.98992 12.9346C2.57992 13.7346 2.33992 14.5946 2.27992 15.4846C2.13992 17.3746 2.77992 19.1846 4.07992 20.5946C4.71239 21.2794 5.47929 21.8265 6.3327 22.2016C7.18612 22.5767 8.10772 22.7717 9.03992 22.7746C9.16992 22.7746 9.29992 22.7746 9.42992 22.7646C10.5431 22.6971 11.6224 22.3559 12.5722 21.7713C13.5219 21.1868 14.3128 20.3769 14.8746 19.4135C15.4364 18.4501 15.7518 17.363 15.7928 16.2485C15.8339 15.1341 15.5993 14.0267 15.1099 13.0246C14.5649 11.9129 14.1101 10.7592 13.7499 9.57459C13.699 9.3963 13.5914 9.23942 13.4435 9.12759C13.2956 9.01576 13.1153 8.95504 12.9299 8.95459Z" fill="#FF6723"/>
<path d="M8.01999 12.1445C8.12242 12.1445 8.22385 12.1243 8.31848 12.0851C8.41312 12.0459 8.4991 11.9884 8.57153 11.916C8.64396 11.8436 8.70142 11.7576 8.74062 11.663C8.77982 11.5683 8.79999 11.4669 8.79999 11.3645C8.79999 11.262 8.77982 11.1606 8.74062 11.066C8.70142 10.9713 8.64396 10.8854 8.57153 10.8129C8.4991 10.7405 8.41312 10.683 8.31848 10.6438C8.22385 10.6046 8.12242 10.5845 8.01999 10.5845C7.81312 10.5845 7.61473 10.6667 7.46845 10.8129C7.32217 10.9592 7.23999 11.1576 7.23999 11.3645C7.23999 11.5713 7.32217 11.7697 7.46845 11.916C7.61473 12.0623 7.81312 12.1445 8.01999 12.1445ZM11.28 14.8645C11.4869 14.8645 11.6853 14.7823 11.8315 14.636C11.9778 14.4897 12.06 14.2913 12.06 14.0845C12.06 13.8776 11.9778 13.6792 11.8315 13.5329C11.6853 13.3867 11.4869 13.3045 11.28 13.3045C11.0731 13.3045 10.8747 13.3867 10.7284 13.5329C10.5822 13.6792 10.5 13.8776 10.5 14.0845C10.5 14.2913 10.5822 14.4897 10.7284 14.636C10.8747 14.7823 11.0731 14.8645 11.28 14.8645ZM8.79999 17.1045C8.79999 17.3113 8.71781 17.5097 8.57153 17.656C8.42526 17.8023 8.22686 17.8845 8.01999 17.8845C7.81312 17.8845 7.61473 17.8023 7.46845 17.656C7.32217 17.5097 7.23999 17.3113 7.23999 17.1045C7.23999 16.8976 7.32217 16.6992 7.46845 16.5529C7.61473 16.4067 7.81312 16.3245 8.01999 16.3245C8.22686 16.3245 8.42526 16.4067 8.57153 16.5529C8.71781 16.6992 8.79999 16.8976 8.79999 17.1045Z" fill="#FFB02E"/>
<path d="M13 7.44458C13.1326 7.44458 13.2598 7.49726 13.3536 7.59103C13.4473 7.68479 13.5 7.81197 13.5 7.94458C13.5 8.68458 13.656 9.24258 13.715 9.39058L13.722 9.40958L13.728 9.42958C14.0809 10.5878 14.5257 11.7161 15.058 12.8036C15.553 13.8036 15.8 14.8796 15.8 16.0046C15.8 16.1372 15.7473 16.2644 15.6536 16.3581C15.5598 16.4519 15.4326 16.5046 15.3 16.5046C15.1674 16.5046 15.0402 16.4519 14.9464 16.3581C14.8527 16.2644 14.8 16.1372 14.8 16.0046C14.8047 15.0481 14.5862 14.1038 14.162 13.2466V13.2446C13.6076 12.1147 13.1444 10.9423 12.777 9.73858C12.67 9.45258 12.5 8.78258 12.5 7.94458C12.5 7.81197 12.5527 7.68479 12.6464 7.59103C12.7402 7.49726 12.8674 7.44458 13 7.44458Z" fill="white"/>
</svg>
