<svg width="364" height="366" viewBox="0 0 364 366" fill="none" xmlns="http://www.w3.org/2000/svg">
<path d="M10.5 29.9998C27 -11 72.1963 0.370963 110.5 10.9998C126.656 15.4828 133.064 24.7891 149 29.9998C198.685 46.2454 239.006 -19.4434 281.5 10.9998C318.297 37.3617 300.773 79.054 316.5 121.5C328.091 152.782 342.327 167.814 349 200.5C356.109 235.319 365.201 246.37 349 278C333.83 307.616 346.235 329.565 316.5 344.5C246.181 379.819 202.846 288.533 127 309.5C105.807 315.358 46 377 27 362.5C-2.93408 339.655 11.6774 305.137 10.5 267.5C9.06321 221.572 27 198.5 27 151C27 103.5 -6 70.9996 10.5 29.9998Z" stroke="white" stroke-opacity="0.2"/>
<path d="M15.5 29.9998C32 -11 77.1963 0.370963 115.5 10.9998C131.656 15.4828 138.064 24.7891 154 29.9998C203.685 46.2454 244.006 -19.4434 286.5 10.9998C323.297 37.3617 305.773 79.054 321.5 121.5C333.091 152.782 347.327 167.814 354 200.5C361.109 235.319 370.201 246.37 354 278C338.83 307.616 351.235 329.565 321.5 344.5C251.181 379.819 207.846 288.533 132 309.5C110.807 315.358 51 377 32 362.5C2.06592 339.655 16.6774 305.137 15.5 267.5C14.0632 221.572 32 198.5 32 151C32 103.5 -1 70.9996 15.5 29.9998Z" stroke="white" stroke-opacity="0.2"/>
<path d="M5.5 29.9998C22 -11 67.1963 0.370963 105.5 10.9998C121.656 15.4828 128.064 24.7891 144 29.9998C193.685 46.2454 234.006 -19.4434 276.5 10.9998C313.297 37.3617 295.773 79.054 311.5 121.5C323.091 152.782 337.327 167.814 344 200.5C351.109 235.319 360.201 246.37 344 278C328.83 307.616 341.235 329.565 311.5 344.5C241.181 379.819 197.846 288.533 122 309.5C100.807 315.358 41 377 22 362.5C-7.93408 339.655 6.67742 305.137 5.5 267.5C4.06321 221.572 22 198.5 22 151C22 103.5 -11 70.9996 5.5 29.9998Z" stroke="white" stroke-opacity="0.2"/>
</svg>
