<svg width="22" height="22" viewBox="0 0 22 22" fill="none" xmlns="http://www.w3.org/2000/svg">
<g id="noto:pizza">
<path id="Vector" d="M3.45524 7.87233C3.45524 7.87233 2.51972 8.44701 2.41217 9.02003C2.30462 9.59471 2.51972 10.2727 2.81335 10.7158C3.10698 11.1589 3.45524 11.5253 3.88373 11.6819C4.31223 11.8385 4.68609 11.8118 4.68609 11.8118C4.68609 11.8118 5.67624 12.9079 7.43972 14.3954C9.2032 15.8829 11.4515 17.6569 13.9917 19.0395C16.532 20.4221 17.4419 20.7619 18.1367 20.7619C18.8315 20.7619 18.8059 19.7441 18.7257 19.431C18.6454 19.1178 14.1795 14.2655 14.1795 14.2655L3.45524 7.87233Z" fill="#FF8E00"/>
<path id="Vector_2" d="M5.32794 10.4043L4.65874 9.69966C4.65874 9.69966 3.96394 8.42036 3.32205 8.42036C2.68016 8.42036 2.41214 9.02003 2.41214 9.02003C2.41214 9.02003 2.33191 8.36706 3.13426 7.11608C3.93662 5.8651 4.95237 4.87232 5.86228 4.246C6.77219 3.61968 7.89378 2.88841 8.64322 2.47197C9.39266 2.05554 11.023 1.53249 11.9602 1.21933C12.8957 0.90617 14.9289 0.514719 15.8644 0.697951C16.8 0.881184 17.2011 1.50751 17.2011 2.15881C17.2011 2.81012 17.0407 3.25488 16.9075 3.3848C16.7744 3.51473 15.8918 4.246 15.8918 4.246L5.32794 10.4043Z" fill="#F5B03E"/>
<path id="Vector_3" d="M7.20425 7.65411L5.54662 8.69853L4.85181 10.0295C4.85181 10.0295 4.98496 10.4726 5.20006 10.7074C5.41346 10.9423 7.20425 12.6164 8.48632 13.6858C9.48671 14.5203 11.6189 16.291 11.6189 16.291C11.6189 16.291 11.706 17.1805 11.8067 17.8052C11.887 18.3016 11.8921 19.1295 12.4281 19.1061C13.1041 19.0761 12.7149 17.7402 13.251 17.7535C14.3213 17.7802 13.2595 20.6053 14.4101 20.5903C15.3269 20.5787 14.7447 19.0345 15.2039 18.7713C15.4532 18.6281 15.9483 19.2361 16.7557 19.5809C17.7527 20.0056 18.3604 20.3271 18.6814 20.1805C19.3591 19.8707 17.9302 12.6464 17.7698 11.4204C17.6093 10.1944 16.8104 3.89785 16.7557 3.68963C16.7011 3.48141 15.6051 3.45476 15.6051 3.45476L13.9202 4.02944L11.5131 4.3426L8.67923 5.9867L7.20425 7.65411Z" fill="#FFCC8A"/>
<path id="Vector_4" d="M6.78601 7.39259C6.26021 7.68243 5.58247 7.84401 5.01058 8.7635C4.53428 9.52975 4.40796 10.3143 4.74768 10.3743C5.0874 10.4342 5.34518 9.27822 5.79757 8.83846C6.52311 8.13052 7.11037 8.05556 7.52691 7.6791C7.94345 7.30264 8.39926 6.27987 10.1354 5.37537C12.1584 4.32095 13.3671 4.59913 13.8399 4.42589C14.4579 4.19935 14.6252 3.82955 15.3986 3.67297C16.2163 3.50806 16.7848 3.82622 16.7848 3.82622C16.7848 3.82622 16.9708 3.40479 16.7233 3.20823C16.4758 3.01167 16.02 2.85842 15.2586 3.01C14.4255 3.17491 13.8075 3.71795 13.6385 3.73294C13.4695 3.74793 11.7401 3.65798 9.68645 4.80235C7.63275 5.94672 7.24865 7.13606 6.78601 7.39259Z" fill="#CB6C22"/>
<path id="Vector_5" d="M9.14676 9.21492L6.3846 9.80293C6.3846 9.80293 6.34192 10.3143 6.36924 10.4659C6.46142 10.9773 7.15623 11.7918 7.57277 11.9268C7.98932 12.0617 8.83777 12.0767 9.11603 11.9567C9.3943 11.8368 10.2274 11.2488 10.3349 10.9323C10.4425 10.6158 10.4135 9.29155 10.1984 9.08C9.98326 8.87011 9.14676 9.21492 9.14676 9.21492Z" fill="#DB0D27"/>
<path id="Vector_6" d="M7.20244 8.37205C6.90711 8.59526 6.33863 9.35152 6.38472 9.89288C6.43081 10.4359 7.38852 11.3837 7.64972 11.4737C7.91091 11.5636 8.76107 11.5786 8.97788 11.5187C9.19468 11.4587 10.0278 10.8557 10.1507 10.6458C10.2736 10.4343 10.3829 9.2599 10.1814 9.05001C9.97997 8.84013 9.37905 8.22214 8.90105 8.08555C8.42135 7.95062 7.48071 8.1605 7.20244 8.37205Z" fill="#ED6D30"/>
<path id="Vector_7" d="M14.2718 10.9023C14.2718 10.9023 11.8272 10.7308 11.7965 10.8807C11.7657 11.0306 11.7094 11.6103 11.8647 12.0767C11.974 12.4082 12.2352 12.9812 13.0375 13.311C13.8399 13.6408 14.6115 13.281 14.813 13.1294C15.1903 12.8463 15.431 12.4965 15.4924 12.2866C15.5539 12.0767 14.2718 10.9023 14.2718 10.9023Z" fill="#DB0D27"/>
<path id="Vector_8" d="M13.0835 9.65135C12.7062 9.78461 11.8031 10.3293 11.786 10.9323C11.7707 11.5353 12.2179 12.2732 12.4501 12.4381C12.6823 12.6031 13.4539 13.0411 14.0241 13.0112C14.596 12.9812 15.383 12.5298 15.4905 12.2882C15.5981 12.0467 15.6442 11.3388 15.5981 10.9773C15.552 10.6158 14.7496 9.80293 14.3485 9.68133C13.9473 9.5614 13.4232 9.53141 13.0835 9.65135Z" fill="#ED6D30"/>
<path id="Vector_9" d="M12.9914 15.2849C12.9914 15.2849 10.7534 14.6819 10.7226 14.7269C10.6919 14.7719 10.3829 15.1483 10.4597 15.3299C10.5366 15.5115 11.3236 16.1278 11.6479 16.3993C11.9723 16.6708 12.9522 17.2322 13.0683 17.2122C13.3465 17.1672 13.5616 16.7308 13.5616 16.7308L12.9914 15.2849Z" fill="#DB0D27"/>
<path id="Vector_10" d="M13.1911 14.3654C12.6448 13.974 11.8475 14.004 11.4156 14.2005C10.9837 14.3971 10.7208 14.6519 10.6747 14.8485C10.6286 15.045 10.9854 15.4232 11.1254 15.5281C11.2637 15.6331 11.6837 15.9429 11.6837 15.9429C11.6837 15.9429 12.3068 16.4193 12.5372 16.5925C12.8582 16.8341 13.2611 16.9707 13.3686 16.9856C13.4762 17.0006 13.9781 16.3677 13.8859 15.5231C13.8381 15.0917 13.6503 14.6952 13.1911 14.3654Z" fill="#ED6D30"/>
<path id="Vector_11" d="M17.0816 13.1611L16.2485 13.1311C16.2485 13.1311 15.9088 13.7491 16.141 14.442C16.3305 15.0084 16.7282 15.3465 17.3906 15.5264C18.0547 15.708 18.4251 15.6431 18.4251 15.6431L18.4354 15.1883L17.0816 13.1611Z" fill="#DB0D27"/>
<path id="Vector_12" d="M17.8841 12.1217C17.8841 12.1217 16.8564 12.0034 16.3255 12.9345C15.9192 13.6492 16.2026 14.2455 16.5269 14.592C16.8513 14.9384 17.3447 15.165 17.7151 15.195C18.0856 15.2249 18.4441 15.1966 18.4441 15.1966C18.4441 15.1966 18.3007 14.2721 18.1607 13.4992C18.0753 13.0362 17.8841 12.1217 17.8841 12.1217Z" fill="#ED6D30"/>
<path id="Vector_13" d="M14.8896 5.60025C14.8896 5.60025 12.8991 5.66022 12.7745 5.85678C12.6498 6.05333 12.6515 6.92619 12.713 7.27266C12.7745 7.61914 13.3156 8.46201 14.3963 8.477C15.4769 8.49199 15.8576 8.2288 16.2775 7.43257C16.6975 6.63635 16.2605 5.74517 16.2605 5.74517L14.8896 5.60025Z" fill="#DB0D27"/>
<path id="Vector_14" d="M14.9051 4.71074C14.4732 4.62912 13.8706 4.80069 13.5769 4.99725C13.2833 5.19381 12.8053 5.60025 12.7746 5.90175C12.7438 6.20325 13.0221 7.0761 13.1297 7.24268C13.2372 7.40759 13.6845 7.85567 13.8245 7.92064C14.1488 8.07055 15.0434 7.99559 15.3063 7.90564C15.5692 7.81569 16.2947 7.24268 16.3715 6.94118C16.4483 6.63968 16.5405 6.12829 16.1854 5.5103C15.8304 4.89231 15.3063 4.78736 14.9051 4.71074Z" fill="#ED6D30"/>
<path id="Vector_15" d="M17.7166 17.3521L15.9395 17.2771C15.9395 17.2771 15.7005 17.7452 15.7722 18.155C15.8303 18.4948 16.1188 18.9579 16.636 19.1528C16.9297 19.2627 17.6979 19.1911 17.8857 19.0662C18.2646 18.813 18.3858 18.3532 18.3739 18.1167C18.3688 17.9934 17.7166 17.3521 17.7166 17.3521Z" fill="#DB0D27"/>
<path id="Vector_16" d="M17.3291 16.6158C16.8682 16.5475 16.3373 16.7907 16.1085 17.0223C15.8798 17.2538 15.8337 17.5437 15.9207 17.8935C16.0795 18.5331 16.4995 18.7147 16.6941 18.813C16.9826 18.9579 17.7747 18.9296 18.0239 18.7447C18.2715 18.5614 18.4593 18.2483 18.4012 17.7669C18.3415 17.2838 18.123 16.7324 17.3291 16.6158Z" fill="#ED6D30"/>
<path id="Vector_17" d="M6.14577 5.16882C6.16113 5.52862 6.80643 5.46699 7.0608 5.442C7.26395 5.42202 7.77268 5.38037 7.77268 5.05722C7.77268 4.73406 7.32882 4.73573 6.99763 4.74739C6.6784 4.75905 6.13211 4.88398 6.14577 5.16882ZM9.61298 3.04999C9.61298 3.28653 9.87929 3.30985 10.0449 3.32317C10.2105 3.33483 10.4256 3.2732 10.4392 3.0883C10.4512 2.90174 10.2873 2.79013 10.0449 2.77847C9.79052 2.76348 9.61298 2.8501 9.61298 3.04999ZM11.2006 3.61967C11.4447 3.87787 11.8101 3.53306 11.9381 3.37148C12.0644 3.2099 12.09 2.9617 11.9501 2.83844C11.8101 2.71517 11.5438 2.8501 11.3662 3.01168C11.1887 3.17325 11.0487 3.4581 11.2006 3.61967ZM13.9577 2.3054C14.2547 2.63355 14.7447 2.08219 14.9478 1.89562C15.151 1.70906 15.3166 1.4492 15.1254 1.23932C14.9342 1.02944 14.5022 1.32594 14.3384 1.5125C14.1728 1.6974 13.7665 2.09551 13.9577 2.3054ZM4.59568 7.87067C4.88419 7.9373 4.97808 7.60415 5.02759 7.34929C5.0788 7.08943 5.0788 6.84123 4.86199 6.80459C4.61616 6.76294 4.4813 7.00281 4.44203 7.23768C4.4096 7.44923 4.32936 7.80903 4.59568 7.87067Z" fill="#FCC12B"/>
</g>
</svg>
