<svg width="28" height="22" viewBox="0 0 28 22" fill="none" xmlns="http://www.w3.org/2000/svg">
<g id="icon">
<g id="Group">
<path id="Vector" d="M22.8024 21.999H5.22291C4.88688 21.9992 4.55411 21.9347 4.24362 21.8092C3.93314 21.6838 3.65103 21.4999 3.41341 21.2681C3.1758 21.0362 2.98734 20.761 2.8588 20.458C2.73027 20.1551 2.66418 19.8304 2.66431 19.5025V17.5806L14.0132 16.4758L25.3799 17.5796V19.4928C25.3765 20.1579 25.1037 20.7947 24.6211 21.2644C24.1384 21.734 23.4851 21.9985 22.8034 22L22.8024 21.999Z" fill="#E19747"/>
<path id="Vector_2" d="M17.2579 5.82763e-08H10.778C9.69296 -0.000127241 8.61856 0.208303 7.61613 0.613386C6.6137 1.01847 5.70287 1.61227 4.93566 2.36087C4.16845 3.10948 3.55989 3.99822 3.14474 4.97635C2.72959 5.95447 2.51598 7.00281 2.51611 8.0615V9.3437H25.5297V8.0615C25.5197 3.61304 21.8169 5.82763e-08 17.2579 5.82763e-08Z" fill="#F3AD61"/>
<path id="Vector_3" d="M17.1985 2.36969C17.2022 2.47014 17.1851 2.5703 17.1483 2.66417C17.1114 2.75805 17.0556 2.84371 16.984 2.91606C16.9125 2.9884 16.8268 3.04595 16.732 3.08525C16.6372 3.12455 16.5352 3.14481 16.4322 3.14481C16.3292 3.14481 16.2272 3.12455 16.1324 3.08525C16.0376 3.04595 15.9518 2.9884 15.8803 2.91606C15.8088 2.84371 15.7529 2.75805 15.7161 2.66417C15.6793 2.5703 15.6622 2.47014 15.6659 2.36969C15.673 2.17604 15.7569 1.99265 15.8998 1.85812C16.0427 1.72359 16.2336 1.64842 16.4322 1.64842C16.6308 1.64842 16.8216 1.72359 16.9645 1.85812C17.1075 1.99265 17.1913 2.17604 17.1985 2.36969ZM11.5946 3.11788C11.6975 3.1215 11.8002 3.10484 11.8964 3.06889C11.9926 3.03294 12.0804 2.97845 12.1545 2.90866C12.2287 2.83887 12.2876 2.75522 12.3279 2.6627C12.3682 2.57018 12.3889 2.47069 12.3889 2.37017C12.3889 2.26965 12.3682 2.17016 12.3279 2.07764C12.2876 1.98512 12.2287 1.90147 12.1545 1.83168C12.0804 1.7619 11.9926 1.7074 11.8964 1.67146C11.8002 1.63551 11.6975 1.61885 11.5946 1.62246C11.3961 1.62944 11.2082 1.71127 11.0703 1.85073C10.9324 1.99019 10.8554 2.1764 10.8554 2.37017C10.8554 2.56394 10.9324 2.75016 11.0703 2.88962C11.2082 3.02908 11.3961 3.11091 11.5946 3.11788ZM19.8663 4.46793C19.8663 4.66636 19.7856 4.85667 19.6417 4.99698C19.4979 5.13729 19.3029 5.21612 19.0995 5.21612C18.8962 5.21612 18.7011 5.13729 18.5573 4.99698C18.4135 4.85667 18.3328 4.66636 18.3328 4.46793C18.3328 4.26949 18.4135 4.07919 18.5573 3.93887C18.7011 3.79856 18.8962 3.71973 19.0995 3.71973C19.3029 3.71973 19.4979 3.79856 19.6417 3.93887C19.7856 4.07919 19.8663 4.26949 19.8663 4.46793ZM8.92769 5.21612C9.13106 5.21599 9.32604 5.13704 9.46975 4.99664C9.61346 4.85623 9.69412 4.66587 9.69398 4.46744C9.69385 4.26901 9.61294 4.07875 9.46905 3.93853C9.32515 3.79831 9.13006 3.7196 8.9267 3.71973C8.72333 3.71973 8.5283 3.79856 8.3845 3.93887C8.2407 4.07919 8.15991 4.26949 8.15991 4.46793C8.15991 4.66636 8.2407 4.85667 8.3845 4.99698C8.5283 5.13729 8.72333 5.21612 8.9267 5.21612H8.92769ZM14.0131 6.06995C14.1161 6.07357 14.2187 6.05691 14.3149 6.02096C14.4111 5.98501 14.4989 5.93052 14.5731 5.86073C14.6472 5.79094 14.7062 5.70729 14.7465 5.61477C14.7867 5.52225 14.8075 5.42276 14.8075 5.32224C14.8075 5.22172 14.7867 5.12223 14.7465 5.02971C14.7062 4.93719 14.6472 4.85354 14.5731 4.78376C14.4989 4.71397 14.4111 4.65947 14.3149 4.62353C14.2187 4.58758 14.1161 4.57092 14.0131 4.57453C13.8147 4.58151 13.6267 4.66334 13.4888 4.8028C13.351 4.94226 13.2739 5.12847 13.2739 5.32224C13.2739 5.51601 13.351 5.70223 13.4888 5.84169C13.6267 5.98115 13.8147 6.06298 14.0131 6.06995Z" fill="#FFF3D7"/>
<path id="Vector_4" d="M25.3699 9.11974H2.65527V12.2278L13.9942 14.109L25.3699 12.2278V9.11974Z" fill="#F8312F"/>
<path id="Vector_5" d="M3.92068 7.92295C4.78679 7.47229 5.81481 6.94409 7.72184 6.94409C9.62987 6.94409 10.6559 7.47325 11.521 7.92295L11.5389 7.93264C12.2391 8.29801 12.7904 8.58488 14.022 8.58488C15.2556 8.58488 15.8059 8.29801 16.5061 7.93361L16.525 7.92392C17.3891 7.47325 18.4161 6.94409 20.3242 6.94409C22.2312 6.94409 23.2582 7.47325 24.1224 7.92392L24.1422 7.93361C24.8405 8.29898 25.3887 8.58488 26.6154 8.58488C26.9826 8.58488 27.3348 8.72722 27.5945 8.98059C27.8541 9.23395 28 9.57759 28 9.9359C28 10.2942 27.8541 10.6378 27.5945 10.8912C27.3348 11.1446 26.9826 11.2869 26.6154 11.2869C24.7064 11.2869 23.6804 10.7568 22.8162 10.3061L22.7964 10.2964C22.0971 9.93105 21.5498 9.64515 20.3232 9.64515C19.0985 9.64515 18.5502 9.93105 17.85 10.2955L17.8291 10.3071C16.963 10.7577 15.935 11.2859 14.023 11.2859C12.111 11.2859 11.083 10.7577 10.2169 10.3071L10.196 10.2955C9.49578 9.93105 8.94751 9.64612 7.72284 9.64612C6.49518 9.64612 5.94492 9.93202 5.2417 10.2974L5.22283 10.3071C4.35672 10.7577 3.32871 11.2859 1.42167 11.2859C1.23679 11.2908 1.05279 11.2594 0.880531 11.1937C0.708275 11.128 0.551253 11.0293 0.418735 10.9034C0.286218 10.7775 0.180891 10.627 0.108972 10.4608C0.0370532 10.2945 0 10.1159 0 9.93541C0 9.75495 0.0370532 9.57632 0.108972 9.41006C0.180891 9.2438 0.286218 9.09328 0.418735 8.9674C0.551253 8.84151 0.708275 8.7428 0.880531 8.67711C1.05279 8.61141 1.23679 8.58005 1.42167 8.58488C2.64833 8.58488 3.19958 8.29898 3.90181 7.93264L3.92068 7.92295Z" fill="#44911B"/>
<path id="Vector_6" d="M25.6091 17.5797H2.41672C1.80442 17.5792 1.21735 17.3416 0.784382 16.9191C0.351418 16.4967 0.107948 15.9238 0.107422 15.3264C0.107948 14.7289 0.351418 14.1561 0.784382 13.7336C1.21735 13.3111 1.80442 13.0736 2.41672 13.0731H25.6091C26.2214 13.0736 26.8084 13.3111 27.2414 13.7336C27.6744 14.1561 27.9178 14.7289 27.9184 15.3264C27.9178 15.9238 27.6744 16.4967 27.2414 16.9191C26.8084 17.3416 26.2214 17.5792 25.6091 17.5797Z" fill="#6D4534"/>
<path id="Vector_7" d="M25.3699 12.2279H2.65527V13.073L9.89208 14.6556C12.5997 15.2488 15.4165 15.2488 18.1241 14.6556L25.3599 13.073V12.2279H25.3699Z" fill="#FCD53F"/>
</g>
</g>
</svg>
