<svg width="113" height="628" viewBox="0 0 113 628" fill="none" xmlns="http://www.w3.org/2000/svg">
<path d="M116.5 0.5C62.1071 10.9481 26.9144 44.2616 13.5001 98C-0.306006 153.308 81.8643 181.885 62.5001 235.5C52.2748 263.811 26.4571 267.83 13.5001 295C-15.5652 355.948 13.7797 402.565 35.5001 466.5C56.0908 527.11 74.957 560.3 116.5 609" stroke="white" stroke-opacity="0.2"/>
<path d="M125.5 9.5C71.1071 19.9481 35.9144 53.2616 22.5001 107C8.69399 162.308 90.8643 190.885 71.5001 244.5C61.2748 272.811 35.4571 276.83 22.5001 304C-6.56521 364.948 22.7797 411.565 44.5001 475.5C65.0908 536.11 83.957 569.3 125.5 618" stroke="white" stroke-opacity="0.2"/>
<path d="M134.5 18.5C80.1071 28.9481 44.9144 62.2616 31.5001 116C17.694 171.308 99.8643 199.885 80.5001 253.5C70.2748 281.811 44.4571 285.83 31.5001 313C2.43479 373.948 31.7797 420.565 53.5001 484.5C74.0908 545.11 92.957 578.3 134.5 627" stroke="white" stroke-opacity="0.2"/>
</svg>
