<svg width="176" height="212" viewBox="0 0 176 212" fill="none" xmlns="http://www.w3.org/2000/svg">
<path d="M-57 154.52C-31.6505 155.195 -17.3281 156.86 7.5 162.02C50.8194 171.022 71.7231 216.59 113.5 202.02C145.777 190.762 162.202 169.052 171 136.02C181.182 97.7907 169.3 68.5107 143.5 38.5197C110.421 0.068161 69.658 4.06609 19 1.51966C-9.37398 0.0933878 -25.7465 1.44836 -53.5 7.51966" stroke="white" stroke-opacity="0.2"/>
<path d="M-62 157.52C-36.6505 158.195 -22.3281 159.86 2.5 165.02C45.8194 174.022 66.7231 219.59 108.5 205.02C140.777 193.762 157.202 172.052 166 139.02C176.182 100.791 164.3 71.5107 138.5 41.5197C105.421 3.06816 64.658 7.06609 14 4.51966C-14.374 3.09339 -30.7465 4.44836 -58.5 10.5197" stroke="white" stroke-opacity="0.2"/>
<path d="M-67 160.52C-41.6505 161.195 -27.3281 162.86 -2.5 168.02C40.8194 177.022 61.7231 222.59 103.5 208.02C135.777 196.762 152.202 175.052 161 142.02C171.182 103.791 159.3 74.5107 133.5 44.5197C100.421 6.06816 59.658 10.0661 9 7.51966C-19.374 6.09339 -35.7465 7.44836 -63.5 13.5197" stroke="white" stroke-opacity="0.2"/>
</svg>
