<svg width="25" height="25" viewBox="0 0 25 25" fill="none" xmlns="http://www.w3.org/2000/svg">
<g id="bi:telephone" clip-path="url(#clip0_29_168)">
<path id="Vector" d="M5.70938 2.07522C5.61714 1.95656 5.50071 1.85889 5.36782 1.78869C5.23493 1.71849 5.08863 1.67737 4.93863 1.66806C4.78862 1.65875 4.63836 1.68147 4.49781 1.73469C4.35726 1.78792 4.22965 1.87044 4.12344 1.97678L2.50782 3.59397C1.75313 4.35022 1.475 5.42053 1.80469 6.35959C3.17303 10.2464 5.3989 13.7754 8.31719 16.6846C11.2265 19.6028 14.7554 21.8287 18.6422 23.1971C19.5813 23.5268 20.6516 23.2487 21.4078 22.494L23.0234 20.8783C23.1298 20.7721 23.2123 20.6445 23.2655 20.504C23.3188 20.3634 23.3415 20.2132 23.3322 20.0632C23.3228 19.9132 23.2817 19.7669 23.2115 19.634C23.1413 19.5011 23.0437 19.3846 22.925 19.2924L19.3203 16.4893C19.1936 16.391 19.0461 16.3227 18.8891 16.2897C18.7321 16.2567 18.5697 16.2597 18.4141 16.2987L14.9922 17.1533C14.5354 17.2675 14.0569 17.2614 13.6032 17.1358C13.1495 17.0101 12.736 16.7691 12.4031 16.4362L8.56563 12.5971C8.23246 12.2643 7.99114 11.851 7.86518 11.3972C7.73922 10.9435 7.73292 10.4649 7.84688 10.008L8.70313 6.58616C8.74205 6.43052 8.74511 6.26809 8.71209 6.1111C8.67907 5.95411 8.61082 5.80667 8.5125 5.6799L5.70938 2.07522ZM2.94375 0.798654C3.21718 0.525138 3.54567 0.312921 3.90741 0.176094C4.26915 0.0392669 4.65585 -0.0190383 5.04185 0.00504966C5.42785 0.0291376 5.80431 0.135068 6.14622 0.315805C6.48814 0.496543 6.7877 0.747954 7.025 1.05334L9.82813 4.65647C10.3422 5.3174 10.5234 6.17834 10.3203 6.99084L9.46563 10.4127C9.42144 10.59 9.42383 10.7756 9.47256 10.9516C9.52129 11.1277 9.61471 11.2881 9.74375 11.4174L13.5828 15.2565C13.7122 15.3858 13.873 15.4793 14.0493 15.5281C14.2256 15.5768 14.4116 15.5791 14.5891 15.5346L18.0094 14.6799C18.4103 14.5797 18.8288 14.5719 19.2333 14.6571C19.6377 14.7424 20.0174 14.9185 20.3438 15.1721L23.9469 17.9752C25.2422 18.983 25.3609 20.8971 24.2016 22.0549L22.5859 23.6705C21.4297 24.8268 19.7016 25.3346 18.0906 24.7674C13.9675 23.3167 10.2239 20.9562 7.1375 17.8612C4.04264 14.7752 1.6822 11.0322 0.231253 6.90959C-0.334372 5.30022 0.173441 3.57053 1.32969 2.41428L2.94532 0.798654H2.94375Z" fill="#FFC700"/>
</g>
<defs>
<clipPath id="clip0_29_168">
<rect width="25" height="25" fill="white"/>
</clipPath>
</defs>
</svg>
