<svg width="28" height="29" viewBox="0 0 28 29" fill="none" xmlns="http://www.w3.org/2000/svg">
<path d="M26.4316 17.5832C26.2128 18.0447 23.2335 20.6041 21.3719 22.2097C19.5103 23.8153 17.3928 25.2263 17.3928 25.2263L15.7566 25.13L16.0453 11.491L26.1538 14.7963C26.1538 14.7963 26.4557 14.9997 26.4885 15.481C26.5191 15.9622 26.6153 17.196 26.4316 17.5832Z" fill="#D46F1E"/>
<path d="M2.65996 18.2306C2.46746 18.2634 2.11528 18.2941 1.98621 19.0006C1.85715 19.7072 1.9884 21.1334 2.50246 21.6475C3.5984 22.7434 5.09246 23.0869 6.25403 23.205C7.28215 23.31 7.8684 23.2094 8.15496 23.3734C8.65371 23.6622 8.66465 24.2419 9.96184 24.9966C10.9418 25.5675 12.6481 26.1034 13.8337 26.1034C15.8068 26.1034 17.3884 25.2262 17.3884 25.2262L17.3556 22.4984L16.2006 16.24L2.65996 18.2306Z" fill="#E48216"/>
<path d="M3.97694 20.5735C6.14037 21.3982 8.82225 21.0876 8.82225 21.0876C8.82225 21.0876 9.43256 22.4351 11.5829 23.1417C13.7332 23.8482 16.3647 23.4938 18.0666 22.3082C19.7685 21.1226 22.6888 18.3926 23.6819 17.5591C24.6751 16.7257 26.0576 15.4723 26.0882 15.1529C26.1188 14.8335 20.5363 10.4651 20.5363 10.4651C20.5363 10.4651 2.9685 18.467 2.58787 18.7141C2.3035 18.9023 2.62944 20.0595 3.97694 20.5735Z" fill="#FADFB1"/>
<path d="M3.23742 16.6906C3.23742 16.6906 2.11523 16.754 2.11523 17.524C2.11523 18.294 2.53305 18.9371 3.5918 19.4184C4.65055 19.8996 6.92992 20.51 8.72586 20.9278C10.5459 21.35 13.3152 22.9184 14.9515 23.0781C16.5484 23.2356 17.8084 21.8575 18.5455 21.1837C19.2827 20.51 22.9424 17.6859 23.7759 16.8503C24.6093 16.0168 26.3746 14.1225 26.3746 14.1225L14.3084 9.72559L3.23742 16.6906Z" fill="#EC8B7A"/>
<path d="M4.16052 17.8565C4.16052 17.8565 3.71864 17.8368 3.43646 17.7755C3.15427 17.7143 2.65114 17.513 2.71239 17.7361C2.77364 17.9593 3.24614 18.4274 4.16052 18.843C5.14708 19.2893 6.42458 19.3746 6.40708 19.333C6.40708 19.333 7.05458 19.8471 7.78083 20.079C8.66677 20.3611 9.59208 20.6258 10.2943 20.6871C10.9615 20.7461 11.0818 20.6127 10.8411 20.3699C10.6005 20.1271 9.95521 19.7268 9.95521 19.7268L6.53396 17.6946L4.16052 17.8565ZM11.7074 20.8336C11.6811 21.0611 12.7333 21.619 13.499 21.9405C14.2646 22.2621 15.6077 22.6821 15.5311 21.7196C15.4786 21.0611 14.6518 20.989 13.7199 20.8949C12.7399 20.7965 11.7293 20.6477 11.7074 20.8336Z" fill="#D45E51"/>
<path d="M2.77145 12.9455C2.77145 12.9455 1.70395 14.958 1.34302 14.8771C0.982078 14.7962 0.820203 14.5555 0.658328 14.7568C0.496453 14.958 0.476765 16.4871 1.32333 16.7299C2.16989 16.9727 2.28364 16.6774 2.78677 16.8984C3.28989 17.1193 3.9352 17.4868 3.9352 17.4868C3.9352 17.4868 3.54145 17.828 3.60052 17.9287C3.65958 18.0293 4.30052 18.3443 4.60239 18.6265C4.90427 18.9087 4.96114 19.2193 6.33052 19.4402C7.69989 19.6612 8.02583 19.6459 8.52895 19.5868C9.03208 19.5277 9.23333 19.2849 9.23333 19.2849C9.23333 19.2849 9.95739 20.2518 10.6815 20.2912C11.4055 20.3305 11.6068 20.0899 11.8496 20.0899C12.0924 20.0899 11.7293 20.3305 12.4927 20.3305C13.2561 20.3305 14.1311 20.4005 15.1461 20.6762C15.8615 20.8709 16.5374 21.5971 17.0011 21.759C17.4649 21.9209 18.1474 21.7787 18.3486 21.5577C18.5499 21.3368 18.5455 20.8052 18.9261 20.4049C19.3068 20.0046 20.2999 19.4949 20.6411 19.1318C20.9824 18.7687 21.2055 17.6334 21.2055 17.6334C21.2055 17.6334 21.6693 17.9965 22.0718 17.9155C22.4743 17.8346 22.938 17.1302 23.299 17.0712C23.6599 17.0121 24.023 16.9093 24.3665 16.568C24.7099 16.2268 24.5677 15.3212 24.7886 15.1593C25.0096 14.9974 25.8561 15.5005 26.298 15.3802C26.7399 15.2599 27.1643 14.6146 27.0636 14.1924C26.963 13.7702 26.8624 13.709 26.8624 13.4684C26.8624 13.2277 27.1249 12.8252 26.8011 12.4227C26.4774 12.0202 20.9627 9.82617 20.9627 9.82617L2.77145 12.9455Z" fill="#B7D019"/>
<path d="M4.60258 16.2859C4.60258 16.2859 4.34007 16.87 4.4407 16.9903C4.54132 17.1106 6.03101 18.3378 6.39195 18.3794C6.75289 18.4209 9.37132 18.3181 9.37132 18.3181L8.24476 16.2859H4.60258ZM14.0613 16.649C14.0613 16.649 12.9151 19.1647 13.0551 19.3856C13.1951 19.6065 14.3238 19.6481 15.2885 19.9084C16.2532 20.1687 16.5354 20.3109 16.8591 20.2912C17.1829 20.2715 18.5085 19.5256 18.5304 19.285C18.5523 19.0444 17.5044 17.8369 17.5044 17.8369L14.0613 16.649ZM20.7223 15.8834L20.3198 16.929C20.3198 16.929 22.1923 17.0494 23.0366 16.6469C23.881 16.2444 24.4935 14.7853 24.756 14.3434C25.1191 13.7353 25.631 13.2103 25.5895 12.9894C25.5479 12.7684 24.2638 11.9175 24.2638 11.9175L20.7223 15.8834Z" fill="#96A819"/>
<path d="M20.8841 16.1043C20.8841 16.1043 18.8519 16.6271 18.8103 16.7475C18.7688 16.8678 16.9181 18.9 16.9181 18.9C16.9181 18.9 18.2875 19.565 19.8166 18.6987C21.3456 17.8368 20.8841 16.1043 20.8841 16.1043ZM25.8541 10.1084C25.8541 10.1084 26.9609 10.4103 26.7794 11.7796C26.5672 13.3809 23.8613 13.3087 23.8613 13.3087C23.8613 13.3087 23.1372 11.3771 23.2575 11.2765C23.3778 11.1759 25.8541 10.1084 25.8541 10.1084ZM9.79563 16.2662L8.16594 17.1106C8.16594 17.1106 8.42844 18.8212 11.1453 19.285C13.8622 19.7487 15.3716 17.3928 15.3716 17.3928L9.79563 16.2662ZM4.90438 14.5162L3.11282 14.5971C3.11282 14.5971 3.04719 15.7587 3.97907 16.4281C5.14063 17.2615 6.83594 16.87 6.83594 16.87L4.90438 14.5162Z" fill="#DC0D2A"/>
<path d="M8.22496 14.1531L4.80371 15.0194C4.80371 15.0194 6.53402 17.3141 7.21871 17.3731C7.9034 17.4322 11.2831 16.73 11.2831 16.73L8.22496 14.1531ZM13.3765 17.6137C13.3765 17.6137 15.4918 19.3222 16.4565 19.2434C17.2003 19.1822 18.1409 17.8784 19.3703 17.2134C20.5996 16.5484 22.4568 16.0606 22.7762 15.8222C23.4084 15.3497 24.2856 12.7641 24.7078 12.1603C25.13 11.5566 26.1778 10.1675 26.1975 9.94655C26.2171 9.72562 26.0159 9.02124 26.0159 9.02124L18.025 15.3606L13.3765 17.6137Z" fill="#FEDF64"/>
<path d="M15.0872 17.2922C15.1878 17.2725 17.139 17.4935 17.139 17.4935C17.139 17.4935 18.7162 16.2728 21.1312 14.28C23.5462 12.2872 25.7972 10.1347 26.3003 9.25972C26.4447 9.01034 26.5081 7.47472 26.5147 7.08972C26.5278 6.42034 26.1559 6.29565 26.1559 6.29565L15.3059 14.0722L15.0872 17.2922Z" fill="#D46F1E"/>
<path d="M17.161 14.4944C17.161 14.6956 17.2944 17.3644 17.1413 17.4934C16.7782 17.7953 13.5997 18.6812 10.9025 17.454C8.31036 16.275 7.86192 15.2206 7.86192 15.2206C7.86192 15.2206 4.5763 15.5947 2.62942 14.4965C1.38255 13.7922 1.3213 12.4228 1.34098 11.7184C1.36067 11.014 1.44161 10.349 1.7238 10.0472C2.00598 9.74529 5.68973 6.66748 6.47505 6.04404C7.26036 5.4206 10.7604 2.84373 11.305 2.7431C11.8497 2.64248 16.5179 3.5481 18.0863 3.91123C19.6547 4.27435 24.2244 5.45998 25.0097 5.76185C25.795 6.06373 26.2785 6.24529 26.2982 6.46623C26.3179 6.68717 26.0772 7.0306 25.795 7.27123C25.5129 7.51185 19.4557 7.19029 19.296 8.29717C19.1363 9.40404 17.161 14.4944 17.161 14.4944Z" fill="#E38211"/>
<path d="M11.4056 3.25497C10.7953 3.36216 7.35435 6.07466 6.3831 6.85559C5.41185 7.63653 2.9006 9.67528 2.47404 10.0537C2.04747 10.4322 1.57279 11.83 3.65747 12.635C5.74216 13.44 8.65591 13.0615 8.65591 13.0615C8.65591 13.0615 9.69935 15.0981 12.1865 15.3606C14.6737 15.6231 16.38 15.5268 17.4693 14.6497C18.5587 13.7725 22.1834 10.6925 23.0125 9.93559C23.8415 9.17653 25.9678 7.28434 25.9262 7.02184C25.8081 6.26278 19.9806 4.98528 17.4934 4.41653C15.2512 3.90247 11.9503 3.16091 11.4056 3.25497Z" fill="#FADFB1"/>
</svg>
